<svg width="1250" height="329" viewBox="0 0 1250 329" fill="none" xmlns="http://www.w3.org/2000/svg">
<path d="M414.6 1.53316C399.933 5.6665 389.667 17.6665 388.6 31.6665C387.533 45.5332 392.733 55.1332 404.6 61.7998C411 65.2665 412.867 65.6665 424.333 65.6665C434.733 65.6665 438.2 65.1332 443.667 62.5998C455.267 57.2665 462.067 48.8665 464.333 37.1332C467.133 22.5998 460.2 9.13317 447.133 3.2665C439.667 -0.0668335 423.267 -1.00017 414.6 1.53316Z" fill="white"/>
<path d="M60.6666 21.2665C55.7333 23.9332 53.3333 28.1998 53.3333 34.0665C53.3333 38.7332 54.1333 40.5998 57.1999 43.7998C60.9333 47.5332 61.5999 47.6665 73.3333 47.6665C85.0666 47.6665 85.7333 47.5332 89.4666 43.7998C96.3999 36.7332 93.9999 24.1998 85.0666 21.1332C79.7333 19.2665 64.1333 19.2665 60.6666 21.2665Z" fill="#FF416D"/>
<path d="M8.76643 82.5216C2.86901 85.1962 0 89.4755 0 95.3596C0 100.04 0.956337 101.912 4.6223 105.122C9.0852 108.866 9.88215 109 23.9084 109C37.9347 109 38.7317 108.866 43.1946 105.122C51.4828 98.0342 48.6138 85.4636 37.9347 82.3879C31.5591 80.5157 12.9106 80.5157 8.76643 82.5216Z" fill="#FFCD00"/>
<circle cx="40" cy="248" r="14" fill="#8FEFEF"/>
<path d="M122.2 20.9998C117.8 22.7331 113.667 28.8665 113.667 33.5331C113.667 43.9331 121.267 48.9998 136.733 48.9998C141 48.9998 146.2 49.9331 148.2 50.9998C151.933 52.8665 156.333 60.0665 156.333 64.1998C156.333 68.8665 152.333 75.6665 148.067 78.3331C143.933 80.8665 141.4 80.9998 107.933 80.9998C69.5332 80.9998 66.4665 81.5331 63.3999 87.9332C60.5999 93.7998 60.3332 95.7998 62.1999 100.066C65.2665 107.666 66.9999 108.333 87.7999 109C109.267 109.8 112.2 110.866 116.867 120.333C119.133 125 119.267 125.933 117.533 130.733C114.6 139 110.467 141.266 96.1999 142.333C84.9999 143.133 83.6665 143.533 80.7332 146.866C74.8665 153.666 74.9999 160.733 81.1332 166.733C84.4665 170.066 85.3999 170.333 97.1332 170.333C104.067 170.333 109.667 170.733 109.667 171.266C109.667 171.933 106.867 186.333 103.533 203.266L97.2666 234.333H86.0665C74.9999 234.333 74.5999 234.466 70.1999 238.866C66.9999 242.066 65.6665 244.6 65.6665 247.666C65.6665 252.333 68.9999 259 72.1999 260.6C73.3999 261.133 96.3332 261.933 123.4 262.333C166.2 262.866 172.467 262.733 173 261C173.267 259.933 175.4 249.4 177.667 237.666C179.933 225.933 182.333 213.133 183.133 209.266L184.467 202.333H212.333C252.6 202.333 271 199.133 293 188.466C316.2 177.266 330.467 163.666 340.2 143.266C346.6 130.066 349.667 115.8 349.667 100.066C349.667 76.8665 343.667 61.3998 329 46.7331C314.467 32.1998 296.467 24.3331 270.467 20.9998C257.533 19.3998 126.2 19.3998 122.2 20.9998ZM254.467 81.6665C262.2 83.9332 269.133 90.3331 271 97.1331C274.333 108.733 271.133 123.133 263.4 130.6C253.667 139.8 251.8 140.333 223.4 140.733C209.267 141 197.667 141 197.667 140.733C197.667 140.333 200.333 126.733 203.667 110.333C207 93.9332 209.667 80.3331 209.667 80.0665C209.667 79.7998 218.2 79.6665 228.733 79.6665C241.667 79.6665 249.933 80.3331 254.467 81.6665Z" fill="white"/>
<path d="M504.467 23.2668C501 26.8668 499.667 32.7335 478.467 138.867C466.2 200.467 456.467 252.2 456.867 253.8C457.4 255.533 459 258.2 460.6 259.667C463.267 262.2 465.267 262.333 487.933 262.333C511.667 262.333 512.6 262.2 515.533 259.267C518.067 256.6 521.267 242.2 540.733 144.867C553 83.5335 563 32.0668 563 30.4668C563 28.7335 561.267 25.6668 559.133 23.5335L555.267 19.6668H531.667H508.067L504.467 23.2668Z" fill="white"/>
<path d="M609.8 23.2668C606.333 26.8668 605 32.8668 583.8 138.867C571.267 201.8 561.8 252.067 562.2 253.8C562.733 255.533 564.333 258.2 565.933 259.667C568.6 262.2 570.6 262.333 593.267 262.333C617 262.333 617.933 262.2 620.867 259.267C623.4 256.6 626.6 242.2 646.067 144.733C658.333 83.4001 668.333 31.9335 668.333 30.3335C668.333 28.7335 666.6 25.6668 664.467 23.5335L660.6 19.6668H637H613.4L609.8 23.2668Z" fill="white"/>
<path d="M903.533 80.7335C898.067 81.5335 894.867 86.8668 892.2 99.2668C888.6 116.467 888.867 120.067 893.8 124.2L897.933 127.667H930.067H962.333L913.4 176.6C864.867 225.4 864.6 225.667 863 233C862.2 237 861.133 243.667 860.733 247.933C860.067 254.733 860.333 255.8 863.4 258.867L866.867 262.333H941.533H1016.2L1019.53 259.267C1022.33 257 1023.53 253.667 1025.67 243.133C1029.13 225.933 1029.13 223.4 1024.87 219.133L1021.27 215.667H986.067C965.267 215.667 951 215.133 951.267 214.467C951.533 213.8 971.8 193.933 996.333 170.333C1020.87 146.733 1042.2 126.067 1043.8 124.467C1045.67 122.333 1047.53 116.6 1049.53 106.067C1052.47 91.6668 1052.47 90.4668 1050.47 86.4668C1049.27 84.2001 1048.07 82.2001 1047.93 82.0668C1047.53 81.5335 906.6 80.3335 903.533 80.7335Z" fill="white"/>
<path d="M386.6 84.2001C384.067 86.8668 381.133 99.6668 367.667 167.933C358.867 212.067 351.8 250.067 351.8 252.067C351.933 254.067 353.4 257.267 355 259C358.067 262.333 358.333 262.333 382.6 262.333C406.333 262.333 407.267 262.2 410.2 259.267C412.867 256.6 415.267 245.667 429.4 174.2C438.333 129 445.667 91.4001 445.667 90.6002C445.667 89.8002 444.067 87.4001 442.2 85.1335L438.733 81.0002H414.2C389.933 81.0002 389.533 81.0002 386.6 84.2001Z" fill="white"/>
<path d="M683.267 83.6667C681.667 85.1333 680.067 87.8 679.533 89.5333C679.133 91.2666 686.867 129.133 697.667 178.333L716.6 263.933L711.4 269.267C708.6 272.2 704.6 275.4 702.467 276.6C696.867 279.533 684.333 279.133 674.467 275.667C662.733 271.533 660.867 272.6 649.133 291C638.867 307.267 637.667 311.933 642.733 317.4C648.333 323.267 670.2 329 686.867 329C718.6 328.733 740.867 316.6 761.933 288.067C768.6 279 870.2 111.267 877.533 97.4C879.8 92.8667 879.267 89.5333 875.533 85.1333L872.067 81H849.667H827.267L824.067 84.7333C822.467 86.7333 807.8 111.4 791.667 139.4C775.533 167.4 761.933 190.333 761.533 190.333C761.133 190.333 756.2 167.133 750.6 138.867C742.2 95.8 739.933 86.8667 737.533 84.2C734.6 81 734.067 81 710.333 81C687.933 81 685.933 81.1333 683.267 83.6667Z" fill="white"/>
<path d="M1136.33 82.9998C1115.27 87.6665 1096.07 98.4665 1082.07 113.4C1072.33 123.8 1065.93 135 1060.87 149.666C1056.07 163.8 1054.87 189 1058.2 202.333C1063.8 224.467 1077.4 241.267 1097.67 251.267C1116.07 260.333 1122.73 261.667 1150.33 261.667C1176.87 261.667 1187.4 259.8 1205.4 251.533C1223.67 243.267 1224.6 238.733 1212.07 219.667C1202.73 205.533 1199.27 203.267 1191.93 206.2C1176.07 212.6 1172.33 213.533 1159.93 214.067C1138.07 215 1126.73 210.333 1120.87 197.933C1119.13 194.066 1117.67 190.2 1117.67 189.267C1117.67 188.066 1130.47 187.666 1177.53 187.666C1212.47 187.666 1238.87 187.133 1240.87 186.333C1247 184.066 1248.6 179.533 1249.27 163.267C1251 123.8 1232.33 96.5998 1195.67 84.9998C1183.53 81.1332 1149.93 79.9332 1136.33 82.9998ZM1172.2 127.133C1181.4 129.8 1188.73 137 1190.87 145.533C1191.67 149 1192.07 152.333 1191.67 153.133C1191.13 153.8 1176.6 154.333 1156.2 154.333C1128.73 154.333 1121.67 153.933 1121.67 152.6C1121.67 151.666 1123.4 148.2 1125.53 144.867C1136.47 127.933 1153.27 121.4 1172.2 127.133Z" fill="white"/>
</svg>
