<svg width="24" height="24" viewBox="0 0 24 24" fill="none" xmlns="http://www.w3.org/2000/svg">
<g clip-path="url(#clip0_58_98)">
<path d="M17.5 2C15.1 2 12.8333 3.7094 12 4.5641C11.1667 3.7094 8.9 2 6.5 2C3.5 2 1 5.07692 1 7.64103C1 15.3077 12 22 12 22C12 22 23 15.3077 23 7.64103C23 5.07692 20.5 2 17.5 2Z" fill="#6D2FF2"/>
<path d="M0 13H5.7169C5.89254 13 6.05529 12.9079 6.14565 12.7572L8.53138 8.78104C8.73437 8.44272 9.23089 8.46179 9.40734 8.81468L11.6382 13.2764C11.8044 13.6088 12.2624 13.6501 12.4854 13.3528L13.35 12.2C13.4444 12.0741 13.5926 12 13.75 12H16.5" stroke="#FEFEFE" stroke-width="2" stroke-linecap="round"/>
</g>
<defs>
<clipPath id="clip0_58_98">
<rect width="24" height="24" fill="white"/>
</clipPath>
</defs>
</svg>
