<svg width="32" height="32" viewBox="0 0 32 32" fill="none" xmlns="http://www.w3.org/2000/svg">
<path fill-rule="evenodd" clip-rule="evenodd" d="M16 5C11.5817 5 8 8.58172 8 13V18.1559C7.40731 18.4014 7 18.911 7 19.5C7 20.3284 7.80589 21 8.8 21H23.2C24.1941 21 25 20.3284 25 19.5C25 18.911 24.5927 18.4014 24 18.1559V13C24 8.58172 20.4183 5 16 5Z" fill="#FDFFF5"/>
<path d="M13 23.4174C13 23.1869 13.1869 23 13.4174 23H18.5826C18.8131 23 19 23.1869 19 23.4174C19 24.8437 17.8437 26 16.4174 26H15.5826C14.1563 26 13 24.8437 13 23.4174Z" fill="#FDFFF5"/>
</svg>
