<svg width="24" height="24" viewBox="0 0 24 24" fill="none" xmlns="http://www.w3.org/2000/svg">
<path fill-rule="evenodd" clip-rule="evenodd" d="M12 4.5641C12.8333 3.7094 15.1 2 17.5 2C20.5 2 23 5.07692 23 7.64103C23 15.3077 12 22 12 22C12 22 6.51324 18.6619 3.28983 14H5.7169C6.2438 14 6.73206 13.7236 7.00314 13.2718L8.92025 10.0766L10.7438 13.7236C11.2424 14.721 12.6164 14.8449 13.2854 13.9528L14 13H16.5C17.0523 13 17.5 12.5523 17.5 12C17.5 11.4477 17.0523 11 16.5 11H13.75C13.2779 11 12.8333 11.2223 12.55 11.6L12.1708 12.1056L10.3018 8.36747C9.77243 7.30879 8.28286 7.25159 7.67389 8.26655L5.43381 12H2.10519C1.42386 10.6134 1 9.14598 1 7.64103C1 5.07692 3.5 2 6.5 2C8.9 2 11.1667 3.7094 12 4.5641Z" fill="#6D2FF2"/>
</svg>
