<svg width="88" height="23" viewBox="0 0 88 23" fill="none" xmlns="http://www.w3.org/2000/svg">
<g clip-path="url(#clip0_60_398)">
<path d="M28.9841 0.107154C27.9588 0.39611 27.2411 1.23502 27.1665 2.21374C27.0919 3.18314 27.4554 3.85427 28.285 4.32032C28.7324 4.56267 28.863 4.59064 29.6645 4.59064C30.3916 4.59064 30.634 4.55336 31.0162 4.37625C31.8271 4.0034 32.3025 3.41617 32.4609 2.59591C32.6566 1.5799 32.172 0.638461 31.2585 0.228329C30.7365 -0.00470075 29.59 -0.0699492 28.9841 0.107154Z" fill="white"/>
<path d="M4.24118 1.48673C3.8963 1.67316 3.72852 1.97143 3.72852 2.38157C3.72852 2.70781 3.78444 2.8383 3.99883 3.06201C4.25982 3.32301 4.30642 3.33233 5.12669 3.33233C5.94695 3.33233 5.99356 3.32301 6.25455 3.06201C6.73925 2.56799 6.57147 1.6918 5.94695 1.47742C5.57411 1.34692 4.48353 1.34692 4.24118 1.48673Z" fill="#FF416D"/>
<path d="M0.61285 5.76897C0.200569 5.95595 0 6.25511 0 6.66646C0 6.99366 0.0668564 7.12453 0.32314 7.34894C0.635136 7.61067 0.690849 7.62004 1.67141 7.62004C2.65197 7.62004 2.70769 7.61067 3.01968 7.34894C3.5991 6.85344 3.39853 5.97464 2.65197 5.75962C2.20626 5.62874 0.902565 5.62874 0.61285 5.76897Z" fill="#FFCD00"/>
<path d="M2.79635 18.3161C3.33688 18.3161 3.77507 17.8779 3.77507 17.3374C3.77507 16.7968 3.33688 16.3586 2.79635 16.3586C2.25582 16.3586 1.81763 16.7968 1.81763 17.3374C1.81763 17.8779 2.25582 18.3161 2.79635 18.3161Z" fill="#8FEFEF"/>
<path d="M8.54286 1.46805C8.23526 1.58922 7.94633 2.018 7.94633 2.34423C7.94633 3.07129 8.47763 3.42549 9.55884 3.42549C9.85714 3.42549 10.2207 3.49074 10.3605 3.56531C10.6215 3.69581 10.9291 4.19915 10.9291 4.48811C10.9291 4.81435 10.6494 5.28973 10.3512 5.47615C10.0622 5.65326 9.88511 5.66257 7.54547 5.66257C4.86099 5.66257 4.6466 5.69986 4.43221 6.14727C4.23647 6.55741 4.21782 6.69723 4.34832 6.99547C4.56271 7.52678 4.68389 7.57341 6.13799 7.62004C7.63873 7.67596 7.84377 7.75049 8.17004 8.41231C8.32845 8.73858 8.33782 8.8038 8.21659 9.13936C8.01155 9.7173 7.72262 9.87571 6.72522 9.95031C5.94224 10.0062 5.84903 10.0342 5.64396 10.2672C5.23383 10.7426 5.24316 11.2366 5.67193 11.6561C5.90496 11.8891 5.97021 11.9078 6.79047 11.9078C7.2752 11.9078 7.66669 11.9357 7.66669 11.973C7.66669 12.0196 7.47095 13.0263 7.23787 14.2101L6.79979 16.3819H6.01681C5.24316 16.3819 5.21519 16.3912 4.90759 16.6988C4.68389 16.9225 4.59067 17.0997 4.59067 17.314C4.59067 17.6403 4.8237 18.1064 5.04741 18.2182C5.1313 18.2555 6.73454 18.3114 8.62675 18.3394C11.6188 18.3766 12.057 18.3673 12.0942 18.2462C12.1129 18.1716 12.262 17.4352 12.4205 16.6149C12.5789 15.7947 12.7467 14.8998 12.8026 14.6295L12.8959 14.1448H14.844C17.659 14.1448 18.9453 13.9211 20.4833 13.1754C22.1052 12.3924 23.1026 11.4417 23.783 10.0155C24.2304 9.09274 24.4448 8.09542 24.4448 6.99547C24.4448 5.37362 24.0254 4.29236 23 3.26703C21.984 2.25102 20.7257 1.70107 18.908 1.46805C18.0038 1.35619 8.82249 1.35619 8.54286 1.46805ZM17.7895 5.70918C18.3301 5.86764 18.8148 6.31505 18.9453 6.79043C19.1783 7.60137 18.9546 8.60806 18.414 9.13007C17.7336 9.77323 17.603 9.81049 15.6176 9.83845C14.6296 9.85712 13.8187 9.85712 13.8187 9.83845C13.8187 9.81049 14.005 8.85973 14.2381 7.71322C14.4711 6.56673 14.6576 5.61597 14.6576 5.59733C14.6576 5.57868 15.2541 5.56937 15.9905 5.56937C16.8947 5.56937 17.4725 5.61597 17.7895 5.70918Z" fill="white"/>
<path d="M35.2667 1.62655C35.0244 1.87822 34.9312 2.28836 33.4491 9.70802C32.5915 14.0144 31.9111 17.631 31.9391 17.7429C31.9763 17.864 32.0882 18.0505 32.2 18.153C32.3865 18.3301 32.5263 18.3394 34.1109 18.3394C35.7701 18.3394 35.8353 18.3301 36.0403 18.125C36.2175 17.9386 36.4412 16.9319 37.802 10.1275C38.6596 5.83972 39.3587 2.24175 39.3587 2.12989C39.3587 2.00872 39.2375 1.79433 39.0884 1.64519L38.8181 1.37488H37.1682H35.5184L35.2667 1.62655Z" fill="white"/>
<path d="M42.6305 1.62655C42.3881 1.87822 42.295 2.29767 40.8129 9.70802C39.9367 14.1076 39.2749 17.6217 39.3029 17.7429C39.3401 17.864 39.452 18.0505 39.5638 18.153C39.7503 18.3301 39.8901 18.3394 41.4747 18.3394C43.1339 18.3394 43.1991 18.3301 43.4042 18.125C43.5813 17.9386 43.805 16.9319 45.1659 10.1181C46.0234 5.8304 46.7225 2.23243 46.7225 2.12057C46.7225 2.00872 46.6013 1.79433 46.4522 1.64519L46.1819 1.37488H44.532H42.8822L42.6305 1.62655Z" fill="white"/>
<path d="M63.1649 5.64397C62.7828 5.6999 62.559 6.07274 62.3726 6.93961C62.1209 8.14206 62.1396 8.39373 62.4844 8.68266L62.7734 8.92503H65.0198H67.2755L63.8547 12.3459C60.4618 15.7574 60.4431 15.7761 60.3313 16.2887C60.2753 16.5684 60.2007 17.0345 60.1728 17.3327C60.1262 17.8081 60.1448 17.8827 60.3592 18.0971L60.6016 18.3394H65.8214H71.0413L71.2741 18.125C71.4698 17.9666 71.5537 17.7335 71.7033 16.9971C71.9452 15.7947 71.9452 15.6176 71.6474 15.3193L71.3957 15.077H68.9347C67.4806 15.077 66.4832 15.0397 66.5019 14.9931C66.5205 14.9465 67.9373 13.5576 69.6524 11.9078C71.3678 10.2579 72.8589 8.81318 72.9708 8.70133C73.1015 8.55214 73.2315 8.15135 73.3714 7.415C73.5769 6.4083 73.5769 6.32441 73.4371 6.04478C73.3532 5.88632 73.2693 5.74651 73.2595 5.73718C73.2315 5.6999 63.3793 5.61601 63.1649 5.64397Z" fill="white"/>
<path d="M27.0268 5.88631C26.8497 6.07273 26.6446 6.96756 25.7032 11.74C25.088 14.8253 24.594 17.4819 24.594 17.6217C24.6033 17.7615 24.7058 17.9852 24.8177 18.1064C25.0321 18.3394 25.0507 18.3394 26.7472 18.3394C28.4063 18.3394 28.4716 18.3301 28.6767 18.125C28.8631 17.9386 29.0309 17.1743 30.0189 12.1781C30.6434 9.01821 31.1561 6.38965 31.1561 6.33372C31.1561 6.2778 31.0443 6.11001 30.9138 5.95155L30.6714 5.6626H28.9563C27.2598 5.6626 27.2319 5.6626 27.0268 5.88631Z" fill="white"/>
<path d="M47.7665 5.84902C47.6546 5.95155 47.5428 6.13798 47.5054 6.25915C47.4775 6.38033 48.0182 9.02752 48.7732 12.467L50.0968 18.4512L49.7332 18.8241C49.5375 19.0292 49.2579 19.2529 49.1087 19.3368C48.7172 19.5418 47.841 19.5138 47.1513 19.2715C46.331 18.9825 46.2005 19.0571 45.3802 20.3434C44.6625 21.4807 44.5786 21.8068 44.9328 22.189C45.3243 22.5992 46.853 23 48.0182 23C50.2366 22.9813 51.7932 22.1331 53.2659 20.1384C53.732 19.5045 60.8348 7.77853 61.3474 6.8091C61.5059 6.49218 61.4686 6.25915 61.2076 5.95155L60.9653 5.6626H59.3993H57.8334L57.6096 5.92359C57.4978 6.06341 56.4724 7.78783 55.3446 9.74527C54.2167 11.7027 53.2659 13.3059 53.238 13.3059C53.21 13.3059 52.8651 11.6841 52.4737 9.70801C51.8864 6.69725 51.7279 6.07273 51.5602 5.88631C51.3551 5.6626 51.3179 5.6626 49.6586 5.6626C48.0927 5.6626 47.9529 5.67192 47.7665 5.84902Z" fill="white"/>
<path d="M79.4395 5.8024C77.9672 6.12864 76.6249 6.88365 75.6462 7.92764C74.9653 8.65469 74.5179 9.43767 74.1641 10.463C73.8286 11.451 73.7447 13.2127 73.9775 14.1448C74.369 15.6922 75.3197 16.8667 76.7368 17.5658C78.0231 18.1996 78.4887 18.2928 80.4182 18.2928C82.2736 18.2928 83.0097 18.1623 84.2681 17.5844C85.5453 17.0065 85.6103 16.6895 84.7343 15.3566C84.0814 14.3685 83.8395 14.2101 83.3264 14.4152C82.2176 14.8626 81.9562 14.9278 81.0893 14.9651C79.5611 15.0304 78.7683 14.7041 78.3587 13.8372C78.237 13.567 78.135 13.2966 78.135 13.2314C78.135 13.1475 79.0298 13.1196 82.3197 13.1196C84.7623 13.1196 86.6079 13.0822 86.7477 13.0263C87.1763 12.8678 87.2881 12.5509 87.335 11.4137C87.4559 8.65469 86.1507 6.75316 83.5878 5.94221C82.7392 5.6719 80.3902 5.58801 79.4395 5.8024ZM81.9471 8.8877C82.5902 9.07414 83.1027 9.57749 83.2523 10.174C83.3082 10.4164 83.3362 10.6494 83.3082 10.7053C83.2705 10.752 82.2547 10.7892 80.8285 10.7892C78.9081 10.7892 78.4146 10.7613 78.4146 10.6681C78.4146 10.6028 78.5355 10.3605 78.6844 10.1274C79.4492 8.94362 80.6237 8.48691 81.9471 8.8877Z" fill="white"/>
</g>
<defs>
<clipPath id="clip0_60_398">
<rect width="88" height="23" fill="white"/>
</clipPath>
</defs>
</svg>
