<svg width="32" height="32" viewBox="0 0 32 32" fill="none" xmlns="http://www.w3.org/2000/svg">
<path d="M5 15H27V22.8C27 23.9201 27 24.4802 26.782 24.908C26.5903 25.2843 26.2843 25.5903 25.908 25.782C25.4802 26 24.9201 26 23.8 26H8.2C7.0799 26 6.51984 26 6.09202 25.782C5.71569 25.5903 5.40973 25.2843 5.21799 24.908C5 24.4802 5 23.9201 5 22.8V15Z" fill="#FEFEFE"/>
<path d="M5 11.2C5 10.0799 5 9.51984 5.21799 9.09202C5.40973 8.71569 5.71569 8.40973 6.09202 8.21799C6.51984 8 7.0799 8 8.2 8H23.8C24.9201 8 25.4802 8 25.908 8.21799C26.2843 8.40973 26.5903 8.71569 26.782 9.09202C27 9.51984 27 10.0799 27 11.2V13H5V11.2Z" fill="#FEFEFE"/>
<path d="M21 6L21 10" stroke="#FEFEFE" stroke-width="2" stroke-linecap="round"/>
<path d="M11 6L11 10" stroke="#FEFEFE" stroke-width="2" stroke-linecap="round"/>
</svg>
